# Blender 4.0.2
# www.blender.org
mtllib cube_textured_opengl.mtl
o Cube
v 1.000000 1.000000 -1.000000
v 1.000000 -1.000000 -1.000000
v 1.001015 1.001015 1.001015
v 1.000000 -1.000000 1.000000
v -1.000000 1.000000 -1.000000
v -1.000000 -1.000000 -1.000000
v -1.015109 1.015098 1.015098
v -1.000000 -1.000000 1.000000
vn 0.0035 1.0000 -0.0040
vn 0.0035 -0.0040 1.0000
vn -1.0000 -0.0037 -0.0037
vn -0.0000 -1.0000 -0.0000
vn 1.0000 -0.0003 -0.0003
vn -0.0000 -0.0000 -1.0000
vt 1.000000 1.000000
vt 0.000000 1.000000
vt 0.000000 0.000000
vt 1.000000 0.000000
vt 1.000000 0.000000
vt -0.000000 0.000000
vt 0.000000 1.000000
vt -0.000000 0.000000
vt -0.000000 1.000000
vt -0.000000 -0.000000
vt 1.000000 0.000000
vt 1.000000 1.000000
s 0
g Cube_Material
usemtl Material
f 1/1/1 5/2/1 7/3/1 3/4/1
f 4/5/2 3/1/2 7/2/2 8/6/2
f 8/7/3 7/8/3 5/4/3 6/1/3
f 6/9/4 2/10/4 4/11/4 8/12/4
f 2/5/5 1/1/5 3/2/5 4/6/5
f 6/7/6 5/8/6 1/4/6 2/1/6
